<svg xmlns="http://www.w3.org/2000/svg" baseProfile="full" version="1.1" width="1230px" height="930px" style="fill: none; width: 1230px; height: 930px;"><path d="" style="stroke-width: 10; stroke-linecap: round; stroke-linejoin: round; stroke: rgb(204, 204, 204); fill: none;"/><path d="" style="stroke-width: 10; stroke-linecap: round; stroke-linejoin: round; stroke: rgb(153, 153, 153); fill: none;"/><path d="M240,120 L240,120 L240,240 L240,240 L240,240 M255,240 L255,240 L240,240 L255,240 L255,240 L255,195 L300,195 L300,180 L255,180 L255,135 L315,135 L315,120 L240,120 M420,120 L420,120 L360,120 L360,240 L420,240 L420,225 L375,225 L375,135 L420,135 L420,120 M480,120 L480,120 L480,240 L495,240 L495,195 L540,240 L540,210 L510,180 L540,135 L540,120 L525,120 L495,165 L495,120 L480,120 L480,120 M240,420 L240,420 L240,300 L255,300 L300,390 L300,300 L315,300 L315,420 L300,420 L255,330 L255,420 L240,420 M360,300 L360,300 L435,300 L435,315 L375,405 L435,405 L435,420 L360,420 L360,405 L420,315 L360,315 L360,300 M540,300 L540,300 L480,300 L480,360 L525,360 L525,405 L480,405 L480,420 L540,420 L540,345 L495,345 L495,315 L540,315 L540,300 " style="stroke-width: 10; stroke-linecap: round; stroke-linejoin: round; stroke: rgb(0, 0, 0); fill: none;"/></svg>